<?xml version="1.0" standalone="no"?>
<svg xmlns:xlink="http://www.w3.org/1999/xlink" id="wave" style="transform:rotate(0deg); transition: 0.3s" viewBox="0 0 1440 490" version="1.1" xmlns="http://www.w3.org/2000/svg"><defs><linearGradient id="sw-gradient-0" x1="0" x2="0" y1="1" y2="0"><stop stop-color="rgba(224, 170, 62, 1)" offset="0%"/><stop stop-color="rgba(224, 170, 62, 1)" offset="100%"/></linearGradient></defs><path style="transform:translate(0, 0px); opacity:1" fill="url(#sw-gradient-0)" d="M0,98L80,147C160,196,320,294,480,302.2C640,310,800,229,960,196C1120,163,1280,180,1440,187.8C1600,196,1760,196,1920,228.7C2080,261,2240,327,2400,351.2C2560,376,2720,359,2880,343C3040,327,3200,310,3360,269.5C3520,229,3680,163,3840,179.7C4000,196,4160,294,4320,277.7C4480,261,4640,131,4800,122.5C4960,114,5120,229,5280,285.8C5440,343,5600,343,5760,318.5C5920,294,6080,245,6240,236.8C6400,229,6560,261,6720,245C6880,229,7040,163,7200,147C7360,131,7520,163,7680,187.8C7840,212,8000,229,8160,220.5C8320,212,8480,180,8640,155.2C8800,131,8960,114,9120,130.7C9280,147,9440,196,9600,236.8C9760,278,9920,310,10080,318.5C10240,327,10400,310,10560,310.3C10720,310,10880,327,11040,277.7C11200,229,11360,114,11440,57.2L11520,0L11520,490L11440,490C11360,490,11200,490,11040,490C10880,490,10720,490,10560,490C10400,490,10240,490,10080,490C9920,490,9760,490,9600,490C9440,490,9280,490,9120,490C8960,490,8800,490,8640,490C8480,490,8320,490,8160,490C8000,490,7840,490,7680,490C7520,490,7360,490,7200,490C7040,490,6880,490,6720,490C6560,490,6400,490,6240,490C6080,490,5920,490,5760,490C5600,490,5440,490,5280,490C5120,490,4960,490,4800,490C4640,490,4480,490,4320,490C4160,490,4000,490,3840,490C3680,490,3520,490,3360,490C3200,490,3040,490,2880,490C2720,490,2560,490,2400,490C2240,490,2080,490,1920,490C1760,490,1600,490,1440,490C1280,490,1120,490,960,490C800,490,640,490,480,490C320,490,160,490,80,490L0,490Z"/></svg>